# Noesis .obj export.
#
mtllib chair.mtl
g
v  -27.777700 81.533302 -22.910101
v  -27.777700 81.533302 -22.910101
v  -25.683399 40.766701 -20.660700
v  -25.108601 81.533302 -27.024900
v  -22.014500 40.766701 -24.775600
v  -22.439699 81.533302 -22.910000
v  -19.345400 40.766701 -20.660601
v  -27.777700 81.533302 -22.910101
v  -25.683399 40.766701 -20.660700
v  29.475700 -0.000007 -25.085100
v  25.682600 40.766701 -20.660500
v  20.936399 -0.000007 -25.084999
v  19.344601 40.766701 -20.660500
v  24.705999 -0.000007 -31.034599
v  22.013599 40.766701 -24.775499
v  25.682600 40.766701 -20.660500
v  25.682600 40.766701 -20.660500
v  22.013599 40.766701 -24.775499
v  25.107700 81.533302 -27.024799
v  19.344601 40.766701 -20.660500
v  22.438801 81.533302 -22.909901
v  25.682600 40.766701 -20.660500
v  27.776800 81.533302 -22.909800
v  -31.946699 0.000001 24.246201
v  -32.595299 0.000001 31.437000
v  -26.798901 40.766701 27.061701
v  -26.180599 0.000001 27.684099
v  -22.285999 40.766701 24.157101
v  -26.296900 40.766701 21.948099
v  -27.777700 81.533302 -22.910101
v  -27.777700 81.533302 -22.910101
v  -25.108601 81.533302 -27.024900
v  -28.997900 122.300003 -32.698101
v  -22.439699 81.533302 -22.910000
v  -26.238701 122.300003 -28.903000
v  -30.756800 122.300003 -28.903000
v  25.107700 81.533302 -27.024799
v  25.107700 81.533302 -27.024799
v  28.996901 122.300003 -32.698101
v  22.438801 81.533302 -22.909901
v  26.237801 122.300003 -28.902901
v  27.776800 81.533302 -22.909800
v  30.756001 122.300003 -28.902901
v  22.796400 40.359001 -21.502199
v  -22.797100 40.359001 -21.502300
v  22.796400 47.696999 -21.502199
v  -22.797100 47.696999 -21.502300
v  29.367300 47.696999 27.417700
v  -29.368000 47.696999 27.417601
v  32.594101 0.000001 31.437000
v  26.797701 40.766701 27.061899
v  26.179600 0.000001 27.684099
v  22.284800 40.766701 24.157200
v  26.295799 40.766701 21.948200
v  -21.568501 47.473999 -21.502300
v  -0.000569 47.473999 -21.502300
v  -0.000477 122.300003 -30.286200
v  21.567400 47.473999 -21.502300
v  28.905500 122.300003 -30.286100
v  21.567400 47.473999 -21.502300
v  -0.000566 47.473999 -21.502300
v  -0.000477 122.300003 -30.286200
v  -21.568501 47.473999 -21.502300
v  -28.906500 122.300003 -30.286200
v  25.107700 81.533302 -27.024799
v  28.996901 122.300003 -32.698101
v  27.776800 81.533302 -22.909800
v  30.756001 122.300003 -28.902901
v  -29.194599 125.889999 -30.950800
v  -28.997900 122.300003 -32.698101
v  -30.756800 122.300003 -28.903000
v  -28.997900 122.300003 -32.698101
v  -28.997900 122.300003 -32.698101
v  -30.756800 122.300003 -28.903000
v  -27.777700 81.533302 -22.910101
v  -29.476601 -0.000007 -25.085100
v  -20.937300 -0.000007 -25.085199
v  -25.683399 40.766701 -20.660700
v  -19.345400 40.766701 -20.660601
v  -22.014500 40.766701 -24.775600
v  -24.707001 -0.000007 -31.034700
v  -25.683399 40.766701 -20.660700
v  -29.476601 -0.000007 -25.085100
v  -22.014500 40.766701 -24.775600
v  -19.345400 40.766701 -20.660601
v  -24.707001 -0.000007 -31.034700
v  -20.937300 -0.000007 -25.085199
v  26.295799 40.766701 21.948200
v  26.797701 40.766701 27.061899
v  31.945700 0.000001 24.246300
v  32.594101 0.000001 31.437000
v  27.248899 24.459999 23.559900
v  26.817699 34.243999 23.828400
v  24.207199 24.459999 -24.088900
v  21.775999 34.243999 -22.820200
v  -27.250000 24.459999 23.559799
v  -24.208200 24.459999 -24.088800
v  -26.818800 34.243999 23.828400
v  -21.777100 34.243999 -22.820299
v  -27.250000 24.459999 23.559799
v  -26.818800 34.243999 23.828400
v  -24.208200 24.459999 -24.088800
v  -21.777100 34.243999 -22.820299
v  27.248899 24.459999 23.559900
v  24.207199 24.459999 -24.088900
v  26.817699 34.243999 23.828400
v  21.775999 34.243999 -22.820200
v  -22.797100 40.359001 -21.502300
v  -29.368000 40.359001 27.417601
v  -22.797100 47.696999 -21.502300
v  -29.368000 47.696999 27.417601
v  -29.368000 40.359001 27.417601
v  29.367300 40.359001 27.417700
v  -29.368000 47.696999 27.417601
v  29.367300 47.696999 27.417700
v  29.367300 40.359001 27.417700
v  22.796400 40.359001 -21.502199
v  29.367300 47.696999 27.417700
v  22.796400 47.696999 -21.502199
v  29.367300 40.359001 27.417700
v  -29.368000 40.359001 27.417601
v  22.796400 40.359001 -21.502199
v  -22.797100 40.359001 -21.502300
v  -21.568501 34.243999 -22.948200
v  -21.568501 24.459999 -24.394199
v  21.567499 34.243999 -22.948299
v  21.567499 24.459999 -24.394199
v  26.925100 34.243999 23.525801
v  26.925100 24.459999 24.971800
v  -26.926001 34.243999 23.525801
v  -26.926001 24.459999 24.971800
v  -26.926001 34.243999 23.525801
v  -26.926001 24.459999 24.971800
v  26.925100 34.243999 23.525801
v  26.925100 24.459999 24.971800
v  21.567499 34.243999 -22.948299
v  21.567499 24.459999 -24.394199
v  -21.568501 34.243999 -22.948200
v  -21.568501 24.459999 -24.394199
v  -26.180599 0.000001 27.684099
v  -31.946699 0.000001 24.246201
v  -26.296900 40.766701 21.948099
v  30.756001 122.300003 -28.902901
v  28.996901 122.300003 -32.698101
v  29.193501 125.889999 -30.950701
v  25.682600 40.766701 -20.660500
v  29.475700 -0.000007 -25.085100
v  24.705999 -0.000007 -31.034599
v  29.193501 125.889999 -30.950701
v  28.996901 122.300003 -32.698101
v  26.237801 122.300003 -28.902901
v  25.107700 81.533302 -27.024799
v  27.776800 81.533302 -22.909800
v  25.682600 40.766701 -20.660500
v  29.193501 125.889999 -30.950701
v  26.237801 122.300003 -28.902901
v  30.756001 122.300003 -28.902901
v  -26.238701 122.300003 -28.903000
v  -28.997900 122.300003 -32.698101
v  -29.194599 125.889999 -30.950800
v  -30.756800 122.300003 -28.903000
v  -26.238701 122.300003 -28.903000
v  -29.194599 125.889999 -30.950800
v  -26.798901 40.766701 27.061701
v  -26.296900 40.766701 21.948099
v  -31.946699 0.000001 24.246201
v  26.295799 40.766701 21.948200
v  31.945700 0.000001 24.246300
v  26.179600 0.000001 27.684099
v  -22.439699 81.533302 -22.910000
v  -30.756800 122.300003 -28.903000
v  -27.777700 81.533302 -22.910101
v  -28.906500 122.300003 -30.286200
v  -21.568501 47.473999 -21.502300
v  -0.000477 122.300003 -30.286200
v  28.905500 122.300003 -30.286100
v  21.567400 47.473999 -21.502300
v  -0.000477 122.300003 -30.286200

vt  0.003906 -0.746094 0.000000
vt  0.003906 -0.746094 0.000000
vt  0.003906 -0.503906 0.000000
vt  0.167969 -0.746094 0.000000
vt  0.167969 -0.503906 0.000000
vt  0.332031 -0.746094 0.000000
vt  0.332031 -0.503906 0.000000
vt  0.488281 -0.746094 0.000000
vt  0.488281 -0.503906 0.000000
vt  0.488281 -0.996094 0.000000
vt  0.488281 -0.511719 0.000000
vt  0.332031 -0.996094 0.000000
vt  0.332031 -0.511719 0.000000
vt  0.167969 -0.996094 0.000000
vt  0.167969 -0.511719 0.000000
vt  0.003906 -0.511719 0.000000
vt  0.003906 -0.503906 0.000000
vt  0.167969 -0.503906 0.000000
vt  0.167969 -0.746094 0.000000
vt  0.332031 -0.503906 0.000000
vt  0.332031 -0.746094 0.000000
vt  0.488281 -0.503906 0.000000
vt  0.488281 -0.746094 0.000000
vt  0.003906 -0.996094 0.000000
vt  0.167969 -0.996094 0.000000
vt  0.167969 -0.511719 0.000000
vt  0.332031 -0.996094 0.000000
vt  0.332031 -0.511719 0.000000
vt  0.488281 -0.511719 0.000000
vt  0.003906 -0.746094 0.000000
vt  0.003906 -0.746094 0.000000
vt  0.167969 -0.746094 0.000000
vt  0.167969 -0.972656 0.000000
vt  0.332031 -0.746094 0.000000
vt  0.332031 -0.972656 0.000000
vt  0.488281 -0.972656 0.000000
vt  0.167969 -0.746094 0.000000
vt  0.167969 -0.746094 0.000000
vt  0.167969 -0.972656 0.000000
vt  0.332031 -0.746094 0.000000
vt  0.332031 -0.972656 0.000000
vt  0.488281 -0.746094 0.000000
vt  0.488281 -0.972656 0.000000
vt  0.003906 -0.027344 0.000000
vt  0.003906 -0.472656 0.000000
vt  0.027344 -0.027344 0.000000
vt  0.027344 -0.472656 0.000000
vt  0.464844 -0.027344 0.000000
vt  0.464844 -0.472656 0.000000
vt  0.167969 -0.996094 0.000000
vt  0.167969 -0.511719 0.000000
vt  0.332031 -0.996094 0.000000
vt  0.332031 -0.511719 0.000000
vt  0.488281 -0.511719 0.000000
vt  0.503906 -0.871094 0.000000
vt  0.750000 -0.871094 0.000000
vt  0.750000 -0.003906 0.000000
vt  0.996094 -0.871094 0.000000
vt  0.996094 -0.003906 0.000000
vt  0.996094 -0.871094 0.000000
vt  0.750000 -0.871094 0.000000
vt  0.750000 -0.003906 0.000000
vt  0.503906 -0.871094 0.000000
vt  0.503906 -0.003906 0.000000
vt  0.167969 -0.746094 0.000000
vt  0.167969 -0.972656 0.000000
vt  0.003906 -0.746094 0.000000
vt  0.003906 -0.972656 0.000000
vt  0.082031 -0.996094 0.000000
vt  0.167969 -0.972656 0.000000
vt  0.003906 -0.972656 0.000000
vt  0.167969 -0.972656 0.000000
vt  0.167969 -0.972656 0.000000
vt  0.003906 -0.972656 0.000000
vt  0.003906 -0.746094 0.000000
vt  0.488281 -0.996094 0.000000
vt  0.332031 -0.996094 0.000000
vt  0.488281 -0.511719 0.000000
vt  0.332031 -0.511719 0.000000
vt  0.167969 -0.511719 0.000000
vt  0.167969 -0.996094 0.000000
vt  0.003906 -0.511719 0.000000
vt  0.003906 -0.996094 0.000000
vt  0.167969 -0.511719 0.000000
vt  0.332031 -0.511719 0.000000
vt  0.167969 -0.996094 0.000000
vt  0.332031 -0.996094 0.000000
vt  0.003906 -0.511719 0.000000
vt  0.167969 -0.511719 0.000000
vt  0.003906 -0.996094 0.000000
vt  0.167969 -0.996094 0.000000
vt  0.996094 -0.996094 0.000000
vt  0.996094 -0.878906 0.000000
vt  0.503906 -0.996094 0.000000
vt  0.503906 -0.878906 0.000000
vt  0.503906 -0.996094 0.000000
vt  0.996094 -0.996094 0.000000
vt  0.503906 -0.878906 0.000000
vt  0.996094 -0.878906 0.000000
vt  0.996094 -0.996094 0.000000
vt  0.996094 -0.878906 0.000000
vt  0.503906 -0.996094 0.000000
vt  0.503906 -0.878906 0.000000
vt  0.503906 -0.996094 0.000000
vt  0.996094 -0.996094 0.000000
vt  0.503906 -0.878906 0.000000
vt  0.996094 -0.878906 0.000000
vt  0.027344 -0.496094 0.000000
vt  0.464844 -0.496094 0.000000
vt  0.027344 -0.472656 0.000000
vt  0.464844 -0.472656 0.000000
vt  0.496094 -0.472656 0.000000
vt  0.496094 -0.027344 0.000000
vt  0.464844 -0.472656 0.000000
vt  0.464844 -0.027344 0.000000
vt  0.464844 -0.003906 0.000000
vt  0.027344 -0.003906 0.000000
vt  0.464844 -0.027344 0.000000
vt  0.027344 -0.027344 0.000000
vt  0.464844 -0.027344 0.000000
vt  0.464844 -0.472656 0.000000
vt  0.027344 -0.027344 0.000000
vt  0.027344 -0.472656 0.000000
vt  0.503906 -0.878906 0.000000
vt  0.503906 -0.996094 0.000000
vt  0.996094 -0.878906 0.000000
vt  0.996094 -0.996094 0.000000
vt  0.503906 -0.878906 0.000000
vt  0.503906 -0.996094 0.000000
vt  0.996094 -0.878906 0.000000
vt  0.996094 -0.996094 0.000000
vt  0.503906 -0.878906 0.000000
vt  0.503906 -0.996094 0.000000
vt  0.996094 -0.878906 0.000000
vt  0.996094 -0.996094 0.000000
vt  0.503906 -0.878906 0.000000
vt  0.503906 -0.996094 0.000000
vt  0.996094 -0.878906 0.000000
vt  0.996094 -0.996094 0.000000
vt  0.332031 -0.996094 0.000000
vt  0.488281 -0.996094 0.000000
vt  0.488281 -0.511719 0.000000
vt  0.003906 -0.972656 0.000000
vt  0.167969 -0.972656 0.000000
vt  0.082031 -0.996094 0.000000
vt  0.003906 -0.511719 0.000000
vt  0.003906 -0.996094 0.000000
vt  0.167969 -0.996094 0.000000
vt  0.253906 -0.996094 0.000000
vt  0.167969 -0.972656 0.000000
vt  0.332031 -0.972656 0.000000
vt  0.167969 -0.746094 0.000000
vt  0.003906 -0.746094 0.000000
vt  0.003906 -0.503906 0.000000
vt  0.417969 -0.996094 0.000000
vt  0.332031 -0.972656 0.000000
vt  0.488281 -0.972656 0.000000
vt  0.332031 -0.972656 0.000000
vt  0.167969 -0.972656 0.000000
vt  0.253906 -0.996094 0.000000
vt  0.488281 -0.972656 0.000000
vt  0.332031 -0.972656 0.000000
vt  0.417969 -0.996094 0.000000
vt  0.167969 -0.511719 0.000000
vt  0.003906 -0.511719 0.000000
vt  0.003906 -0.996094 0.000000
vt  0.488281 -0.511719 0.000000
vt  0.488281 -0.996094 0.000000
vt  0.332031 -0.996094 0.000000
vt  0.332031 -0.746094 0.000000
vt  0.488281 -0.972656 0.000000
vt  0.488281 -0.746094 0.000000
vt  0.503906 -0.003906 0.000000
vt  0.503906 -0.871094 0.000000
vt  0.750000 -0.003906 0.000000
vt  0.996094 -0.003906 0.000000
vt  0.996094 -0.871094 0.000000
vt  0.750000 -0.003906 0.000000

vn  -0.980536 -0.058623 0.187383
vn  -0.980536 -0.058623 0.187383
vn  -0.986888 -0.012044 0.160955
vn  -0.248974 -0.095951 -0.963745
vn  0.081012 0.049007 -0.995508
vn  0.988166 0.090385 0.123932
vn  0.989331 0.013360 0.145074
vn  -0.980536 -0.058623 0.187383
vn  -0.986888 -0.012044 0.160955
vn  0.899165 0.036331 0.436099
vn  0.986888 -0.012044 0.160957
vn  -0.499199 -0.112736 0.859122
vn  -0.989329 0.013360 0.145087
vn  -0.072250 0.143300 -0.987038
vn  -0.081015 0.049006 -0.995507
vn  0.986888 -0.012044 0.160957
vn  0.986888 -0.012044 0.160957
vn  -0.081015 0.049006 -0.995507
vn  0.248985 -0.095952 -0.963743
vn  -0.989329 0.013360 0.145087
vn  -0.988164 0.090387 0.123947
vn  0.986888 -0.012044 0.160957
vn  0.980535 -0.058622 0.187388
vn  -0.813246 0.079664 -0.576441
vn  -0.521926 0.164047 0.837067
vn  -0.514213 0.168432 0.840961
vn  0.995267 -0.096746 -0.009172
vn  0.994841 -0.097473 -0.028112
vn  0.000417 -0.059400 -0.998234
vn  -0.980536 -0.058623 0.187383
vn  -0.980536 -0.058623 0.187383
vn  -0.248974 -0.095951 -0.963745
vn  -0.068256 0.058309 -0.995962
vn  0.988166 0.090385 0.123932
vn  0.800153 0.478890 0.361136
vn  -0.826594 0.306883 0.471768
vn  0.248985 -0.095952 -0.963743
vn  0.248985 -0.095952 -0.963743
vn  0.068237 0.058321 -0.995963
vn  -0.988164 0.090387 0.123947
vn  -0.800150 0.478878 0.361159
vn  0.980535 -0.058622 0.187388
vn  0.826597 0.306894 0.471755
vn  0.548394 -0.553319 -0.626978
vn  -0.548393 -0.553319 -0.626979
vn  0.548394 0.553319 -0.626978
vn  -0.548393 0.553319 -0.626979
vn  0.599428 0.604812 0.524297
vn  -0.599429 0.604812 0.524297
vn  0.521918 0.164045 0.837073
vn  0.514210 0.168430 0.840964
vn  -0.995266 -0.096751 -0.009172
vn  -0.994841 -0.097478 -0.028111
vn  -0.000413 -0.059399 -0.998234
vn  -0.000001 0.116591 0.993180
vn  -0.000001 0.116591 0.993180
vn  -0.000001 0.116591 0.993180
vn  -0.000001 0.116590 0.993180
vn  -0.000001 0.116590 0.993180
vn  0.000001 -0.116590 -0.993180
vn  0.000001 -0.116591 -0.993180
vn  0.000001 -0.116591 -0.993180
vn  0.000001 -0.116591 -0.993180
vn  0.000001 -0.116591 -0.993180
vn  0.248985 -0.095952 -0.963743
vn  0.068237 0.058321 -0.995963
vn  0.980535 -0.058622 0.187388
vn  0.826597 0.306894 0.471755
vn  -0.131684 0.985415 -0.107778
vn  -0.068256 0.058309 -0.995962
vn  -0.826594 0.306883 0.471768
vn  -0.068256 0.058309 -0.995962
vn  -0.068256 0.058309 -0.995962
vn  -0.826594 0.306883 0.471768
vn  -0.980536 -0.058623 0.187383
vn  -0.899153 0.036331 0.436123
vn  0.499210 -0.112734 0.859116
vn  -0.986888 -0.012044 0.160955
vn  0.989331 0.013360 0.145074
vn  0.081012 0.049007 -0.995508
vn  0.072237 0.143299 -0.987040
vn  -0.986888 -0.012044 0.160955
vn  -0.899153 0.036331 0.436123
vn  0.081012 0.049007 -0.995508
vn  0.989331 0.013360 0.145074
vn  0.072237 0.143299 -0.987040
vn  0.499210 -0.112734 0.859116
vn  -0.000413 -0.059399 -0.998234
vn  0.514210 0.168430 0.840964
vn  0.813250 0.079667 -0.576435
vn  0.521918 0.164045 0.837073
vn  -0.996927 -0.045687 0.063641
vn  -0.985093 -0.149961 0.084288
vn  -0.985093 -0.149961 0.084288
vn  -0.961990 -0.252520 0.103970
vn  0.996926 -0.045692 0.063643
vn  0.985092 -0.149962 0.084288
vn  0.985092 -0.149962 0.084288
vn  0.961991 -0.252516 0.103970
vn  -0.996926 0.045692 -0.063643
vn  -0.985092 0.149962 -0.084288
vn  -0.985092 0.149962 -0.084288
vn  -0.961991 0.252516 -0.103970
vn  0.996927 0.045687 -0.063641
vn  0.985093 0.149961 -0.084288
vn  0.985093 0.149961 -0.084288
vn  0.961990 0.252520 -0.103970
vn  -0.548393 -0.553319 -0.626979
vn  -0.599429 -0.604812 0.524297
vn  -0.548393 0.553319 -0.626979
vn  -0.599429 0.604812 0.524297
vn  -0.599429 -0.604812 0.524297
vn  0.599428 -0.604812 0.524297
vn  -0.599429 0.604812 0.524297
vn  0.599428 0.604812 0.524297
vn  0.599428 -0.604812 0.524297
vn  0.548394 -0.553319 -0.626978
vn  0.599428 0.604812 0.524297
vn  0.548394 0.553319 -0.626978
vn  0.599428 -0.604812 0.524297
vn  -0.599429 -0.604812 0.524297
vn  0.548394 -0.553319 -0.626978
vn  -0.548393 -0.553319 -0.626979
vn  0.000001 -0.146200 0.989255
vn  0.000001 -0.146200 0.989255
vn  0.000001 -0.146200 0.989255
vn  0.000001 -0.146200 0.989255
vn  0.000001 -0.146204 -0.989254
vn  0.000001 -0.146204 -0.989254
vn  0.000001 -0.146204 -0.989254
vn  0.000001 -0.146204 -0.989254
vn  -0.000001 0.146204 0.989254
vn  -0.000001 0.146204 0.989254
vn  -0.000001 0.146204 0.989254
vn  -0.000001 0.146204 0.989254
vn  -0.000001 0.146200 -0.989255
vn  -0.000001 0.146200 -0.989255
vn  -0.000001 0.146200 -0.989255
vn  -0.000001 0.146200 -0.989255
vn  0.995267 -0.096746 -0.009172
vn  -0.813246 0.079664 -0.576441
vn  0.000417 -0.059400 -0.998234
vn  0.826597 0.306894 0.471755
vn  0.068237 0.058321 -0.995963
vn  0.131661 0.985420 -0.107763
vn  0.986888 -0.012044 0.160957
vn  0.899165 0.036331 0.436099
vn  -0.072250 0.143300 -0.987038
vn  0.131661 0.985420 -0.107763
vn  0.068237 0.058321 -0.995963
vn  -0.800150 0.478878 0.361159
vn  0.248985 -0.095952 -0.963743
vn  0.980535 -0.058622 0.187388
vn  0.986888 -0.012044 0.160957
vn  0.131661 0.985420 -0.107763
vn  -0.800150 0.478878 0.361159
vn  0.826597 0.306894 0.471755
vn  0.800153 0.478890 0.361136
vn  -0.068256 0.058309 -0.995962
vn  -0.131684 0.985415 -0.107778
vn  -0.826594 0.306883 0.471768
vn  0.800153 0.478890 0.361136
vn  -0.131684 0.985415 -0.107778
vn  -0.514213 0.168432 0.840961
vn  0.000417 -0.059400 -0.998234
vn  -0.813246 0.079664 -0.576441
vn  -0.000413 -0.059399 -0.998234
vn  0.813250 0.079667 -0.576435
vn  -0.995266 -0.096751 -0.009172
vn  0.988166 0.090385 0.123932
vn  -0.826594 0.306883 0.471768
vn  -0.980536 -0.058623 0.187383
vn  -0.000001 0.116591 0.993180
vn  -0.000001 0.116591 0.993180
vn  -0.000001 0.116591 0.993180
vn  0.000001 -0.116590 -0.993180
vn  0.000001 -0.116590 -0.993180
vn  0.000001 -0.116591 -0.993180

g rdmobj00
usemtl material000
f  1/1/1 2/2/2 3/3/3
f  4/4/4 3/3/3 2/2/2
f  3/3/3 4/4/4 5/5/5
f  6/6/6 5/5/5 4/4/4
f  5/5/5 6/6/6 7/7/7
f  8/8/8 7/7/7 6/6/6
f  7/7/7 8/8/8 9/9/9
f  10/10/10 11/11/11 12/12/12
f  13/13/13 12/12/12 11/11/11
f  12/12/12 13/13/13 14/14/14
f  15/15/15 14/14/14 13/13/13
f  14/14/14 15/15/15 16/16/16
f  17/17/17 18/18/18 19/19/19
f  20/20/20 19/19/19 18/18/18
f  19/19/19 20/20/20 21/21/21
f  22/22/22 21/21/21 20/20/20
f  21/21/21 22/22/22 23/23/23
f  24/24/24 25/25/25 26/26/26
f  27/27/27 26/26/26 25/25/25
f  26/26/26 27/27/27 28/28/28
f  29/29/29 28/28/28 27/27/27
f  30/30/30 31/31/31 32/32/32
f  33/33/33 32/32/32 31/31/31
f  32/32/32 33/33/33 34/34/34
f  35/35/35 34/34/34 33/33/33
f  34/34/34 35/35/35 36/36/36
f  37/37/37 38/38/38 39/39/39
f  40/40/40 39/39/39 38/38/38
f  39/39/39 40/40/40 41/41/41
f  42/42/42 41/41/41 40/40/40
f  41/41/41 42/42/42 43/43/43
f  44/44/44 45/45/45 46/46/46
f  47/47/47 46/46/46 45/45/45
f  46/46/46 47/47/47 48/48/48
f  49/49/49 48/48/48 47/47/47
f  50/50/50 51/51/51 52/52/52
f  53/53/53 52/52/52 51/51/51
f  52/52/52 53/53/53 54/54/54
f  55/55/55 56/56/56 57/57/57
f  58/58/58 57/57/57 56/56/56
f  57/57/57 58/58/58 59/59/59
f  60/60/60 61/61/61 62/62/62
f  63/63/63 62/62/62 61/61/61
f  62/62/62 63/63/63 64/64/64
f  65/65/65 66/66/66 67/67/67
f  68/68/68 67/67/67 66/66/66
f  69/69/69 70/70/70 71/71/71
f  72/72/72 73/73/73 74/74/74
f  75/75/75 74/74/74 73/73/73
f  76/76/76 77/77/77 78/78/78
f  79/79/79 78/78/78 77/77/77
f  80/80/80 81/81/81 82/82/82
f  83/83/83 82/82/82 81/81/81
f  84/84/84 85/85/85 86/86/86
f  87/87/87 86/86/86 85/85/85
f  88/88/88 89/89/89 90/90/90
f  91/91/91 90/90/90 89/89/89
f  92/92/92 93/93/93 94/94/94
f  95/95/95 94/94/94 93/93/93
f  96/96/96 97/97/97 98/98/98
f  99/99/99 98/98/98 97/97/97
f  100/100/100 101/101/101 102/102/102
f  103/103/103 102/102/102 101/101/101
f  104/104/104 105/105/105 106/106/106
f  107/107/107 106/106/106 105/105/105
f  108/108/108 109/109/109 110/110/110
f  111/111/111 110/110/110 109/109/109
f  112/112/112 113/113/113 114/114/114
f  115/115/115 114/114/114 113/113/113
f  116/116/116 117/117/117 118/118/118
f  119/119/119 118/118/118 117/117/117
f  120/120/120 121/121/121 122/122/122
f  123/123/123 122/122/122 121/121/121
f  124/124/124 125/125/125 126/126/126
f  127/127/127 126/126/126 125/125/125
f  128/128/128 129/129/129 130/130/130
f  131/131/131 130/130/130 129/129/129
f  132/132/132 133/133/133 134/134/134
f  135/135/135 134/134/134 133/133/133
f  136/136/136 137/137/137 138/138/138
f  139/139/139 138/138/138 137/137/137
f  140/140/140 141/141/141 142/142/142
f  143/143/143 144/144/144 145/145/145
f  146/146/146 147/147/147 148/148/148
f  149/149/149 150/150/150 151/151/151
f  152/152/152 153/153/153 154/154/154
f  155/155/155 156/156/156 157/157/157
f  158/158/158 159/159/159 160/160/160
f  161/161/161 162/162/162 163/163/163
f  164/164/164 165/165/165 166/166/166
f  167/167/167 168/168/168 169/169/169
f  170/170/170 171/171/171 172/172/172
f  173/173/173 174/174/174 175/175/175
f  176/176/176 177/177/177 178/178/178

g
