# Noesis .obj export.
#
mtllib wood_door_planks.mtl
g
v  -26.736200 141.729996 21.999300
v  -26.736200 141.729996 21.999300
v  -59.750599 157.283005 23.999399
v  -26.736200 141.729996 24.999399
v  -51.947601 174.697998 23.999399
v  -1.193530 146.384003 24.999399
v  -1.193530 146.384003 21.999300
v  22.086599 136.695007 24.999399
v  22.086599 136.695007 21.999300
v  22.086599 136.695007 21.999300
v  53.195099 125.247002 23.999399
v  22.086599 136.695007 24.999399
v  42.392101 104.832001 23.999399
v  -2.703200 131.009995 24.999399
v  -2.703200 131.009995 21.999300
v  -26.736200 141.729996 24.999399
v  88.009201 315.364990 18.999901
v  -0.044546 321.011993 26.999800
v  88.009201 315.364990 28.999701
v  -6.780160 303.640991 26.999800
v  89.209099 289.397003 28.999701
v  89.209099 289.397003 18.999901
v  -100.108002 335.419006 18.999800
v  -100.108002 335.419006 18.999800
v  -0.044546 321.011993 26.999800
v  -100.108002 335.419006 28.999701
v  -6.780160 303.640991 26.999800
v  -102.654999 312.760986 28.999701
v  -102.654999 312.760986 18.999800
v  58.576302 163.358002 24.999201
v  58.576302 163.358002 18.999500
v  -1.193530 146.384003 21.999300
v  -11.548700 143.945007 18.999500
v  -26.736200 141.729996 21.999300
v  -1.193530 146.384003 21.999300
v  22.086599 136.695007 21.999300
v  58.576302 163.358002 24.999201
v  63.762600 147.613007 24.999201
v  -79.487396 111.787003 24.999201
v  -79.487396 111.787003 18.999399
v  -2.703200 131.009995 21.999300
v  63.762600 147.613007 18.999500
v  -2.703200 131.009995 21.999300
v  -26.736200 141.729996 21.999300
v  -79.487396 111.787003 24.999201
v  -82.673798 131.531006 24.999201
v  63.762600 147.613007 24.999201
v  22.086599 136.695007 21.999300
v  63.762600 147.613007 18.999500
v  -2.703200 131.009995 21.999300
v  -82.673798 131.531006 24.999201
v  -26.736200 141.729996 21.999300
v  -82.673798 131.531006 18.999399
v  -11.548700 143.945007 18.999500
v  88.009201 315.364990 18.999901
v  -0.044544 321.011993 18.999800
v  -0.044546 321.011993 26.999800
v  -100.108002 335.419006 18.999800
v  89.209099 289.397003 18.999901
v  -6.780160 303.640991 26.999800
v  -6.780160 303.640991 18.999800
v  -102.654999 312.760986 18.999800
v  89.209099 289.397003 28.999701
v  88.009201 315.364990 18.999901
v  88.009201 315.364990 28.999701
v  88.009201 315.364990 18.999901
v  89.209099 289.397003 28.999701
v  89.209099 289.397003 18.999901
v  -102.654999 312.760986 18.999800
v  -100.108002 335.419006 28.999701
v  -100.108002 335.419006 18.999800
v  -100.108002 335.419006 28.999701
v  -102.654999 312.760986 18.999800
v  -102.654999 312.760986 28.999701
v  -51.947601 174.697998 23.999399
v  -59.750599 157.283005 17.999399
v  -59.750599 157.283005 23.999399
v  -59.750599 157.283005 17.999399
v  -51.947601 174.697998 23.999399
v  -51.947601 174.697998 17.999399
v  -26.736200 141.729996 21.999300
v  -59.750599 157.283005 23.999399
v  -59.750599 157.283005 17.999399
v  53.195099 125.247002 17.999399
v  42.392101 104.832001 23.999399
v  42.392101 104.832001 17.999399
v  42.392101 104.832001 23.999399
v  53.195099 125.247002 17.999399
v  53.195099 125.247002 23.999399
v  -51.947601 174.697998 23.999399
v  -1.193530 146.384003 21.999300
v  -51.947601 174.697998 17.999399
v  42.392101 104.832001 23.999399
v  -2.703200 131.009995 21.999300
v  42.392101 104.832001 17.999399
v  22.086599 136.695007 21.999300
v  53.195099 125.247002 23.999399
v  53.195099 125.247002 17.999399
v  -1.193530 146.384003 21.999300
v  22.086599 136.695007 24.999399
v  22.086599 136.695007 21.999300
v  -2.703200 131.009995 24.999399
v  -1.193530 146.384003 24.999399
v  -26.736200 141.729996 24.999399
v  -1.193530 146.384003 24.999399
v  -2.703200 131.009995 24.999399
v  22.086599 136.695007 24.999399
v  -2.703200 131.009995 21.999300
v  -26.736200 141.729996 24.999399
v  -26.736200 141.729996 21.999300
v  58.576302 163.358002 24.999201
v  63.762600 147.613007 18.999500
v  58.576302 163.358002 18.999500
v  63.762600 147.613007 18.999500
v  58.576302 163.358002 24.999201
v  63.762600 147.613007 24.999201
v  -79.487396 111.787003 18.999399
v  -82.673798 131.531006 24.999201
v  -82.673798 131.531006 18.999399
v  -82.673798 131.531006 24.999201
v  -79.487396 111.787003 18.999399
v  -79.487396 111.787003 24.999201

vt  0.785156 -0.898437 0.000000
vt  0.785156 -0.898437 0.000000
vt  0.503906 -0.820312 0.000000
vt  0.785156 -0.820312 0.000000
vt  0.503906 -0.585937 0.000000
vt  0.785156 -0.585937 0.000000
vt  0.785156 -0.507812 0.000000
vt  0.738281 -0.585937 0.000000
vt  0.738281 -0.507812 0.000000
vt  0.738281 -0.507812 0.000000
vt  0.996094 -0.585937 0.000000
vt  0.738281 -0.585937 0.000000
vt  0.996094 -0.820312 0.000000
vt  0.738281 -0.820312 0.000000
vt  0.738281 -0.898437 0.000000
vt  0.785156 -0.820312 0.000000
vt  0.996094 -0.007812 0.000000
vt  0.519531 -0.085937 0.000000
vt  0.996094 -0.085937 0.000000
vt  0.519531 -0.320312 0.000000
vt  0.996094 -0.320312 0.000000
vt  0.996094 -0.398437 0.000000
vt  0.003906 -0.007812 0.000000
vt  0.003906 -0.007812 0.000000
vt  0.519531 -0.085937 0.000000
vt  0.003906 -0.085937 0.000000
vt  0.519531 -0.320312 0.000000
vt  0.003906 -0.320312 0.000000
vt  0.003906 -0.398437 0.000000
vt  0.496094 -0.585937 0.000000
vt  0.496094 -0.507812 0.000000
vt  0.246094 -0.585937 0.000000
vt  0.246094 -0.507812 0.000000
vt  0.246094 -0.585937 0.000000
vt  0.246094 -0.585937 0.000000
vt  0.246094 -0.820312 0.000000
vt  0.496094 -0.585937 0.000000
vt  0.496094 -0.820312 0.000000
vt  0.003906 -0.820312 0.000000
vt  0.003906 -0.898437 0.000000
vt  0.246094 -0.820312 0.000000
vt  0.496094 -0.898437 0.000000
vt  0.246094 -0.820312 0.000000
vt  0.246094 -0.585937 0.000000
vt  0.003906 -0.820312 0.000000
vt  0.003906 -0.585937 0.000000
vt  0.496094 -0.820312 0.000000
vt  0.246094 -0.820312 0.000000
vt  0.496094 -0.898437 0.000000
vt  0.246094 -0.820312 0.000000
vt  0.003906 -0.585937 0.000000
vt  0.246094 -0.585937 0.000000
vt  0.003906 -0.507812 0.000000
vt  0.246094 -0.507812 0.000000
vt  0.996094 -0.007812 0.000000
vt  0.519531 -0.007812 0.000000
vt  0.519531 -0.085937 0.000000
vt  0.003906 -0.007812 0.000000
vt  0.996094 -0.398437 0.000000
vt  0.519531 -0.320312 0.000000
vt  0.519531 -0.398437 0.000000
vt  0.003906 -0.398437 0.000000
vt  0.878906 -0.414062 0.000000
vt  0.996094 -0.492187 0.000000
vt  0.996094 -0.414062 0.000000
vt  0.996094 -0.492187 0.000000
vt  0.878906 -0.414062 0.000000
vt  0.878906 -0.492187 0.000000
vt  0.121094 -0.492187 0.000000
vt  0.003906 -0.414062 0.000000
vt  0.003906 -0.492187 0.000000
vt  0.003906 -0.414062 0.000000
vt  0.121094 -0.492187 0.000000
vt  0.121094 -0.414062 0.000000
vt  0.503906 -0.914062 0.000000
vt  0.621094 -0.992187 0.000000
vt  0.621094 -0.914062 0.000000
vt  0.621094 -0.992187 0.000000
vt  0.503906 -0.914062 0.000000
vt  0.503906 -0.992187 0.000000
vt  0.785156 -0.898437 0.000000
vt  0.503906 -0.820312 0.000000
vt  0.503906 -0.898437 0.000000
vt  0.996094 -0.992187 0.000000
vt  0.878906 -0.914062 0.000000
vt  0.878906 -0.992187 0.000000
vt  0.878906 -0.914062 0.000000
vt  0.996094 -0.992187 0.000000
vt  0.996094 -0.914062 0.000000
vt  0.503906 -0.585937 0.000000
vt  0.785156 -0.507812 0.000000
vt  0.503906 -0.507812 0.000000
vt  0.996094 -0.820312 0.000000
vt  0.738281 -0.898437 0.000000
vt  0.996094 -0.898437 0.000000
vt  0.738281 -0.507812 0.000000
vt  0.996094 -0.585937 0.000000
vt  0.996094 -0.507812 0.000000
vt  0.785156 -0.507812 0.000000
vt  0.738281 -0.585937 0.000000
vt  0.738281 -0.507812 0.000000
vt  0.738281 -0.820312 0.000000
vt  0.785156 -0.585937 0.000000
vt  0.785156 -0.820312 0.000000
vt  0.785156 -0.585937 0.000000
vt  0.738281 -0.820312 0.000000
vt  0.738281 -0.585937 0.000000
vt  0.738281 -0.898437 0.000000
vt  0.785156 -0.820312 0.000000
vt  0.785156 -0.898437 0.000000
vt  0.496094 -0.914062 0.000000
vt  0.378906 -0.992187 0.000000
vt  0.496094 -0.992187 0.000000
vt  0.378906 -0.992187 0.000000
vt  0.496094 -0.914062 0.000000
vt  0.378906 -0.914062 0.000000
vt  0.121094 -0.992187 0.000000
vt  0.003906 -0.914062 0.000000
vt  0.003906 -0.992187 0.000000
vt  0.003906 -0.914062 0.000000
vt  0.121094 -0.992187 0.000000
vt  0.121094 -0.914062 0.000000

vn  -0.530986 0.485850 0.694265
vn  -0.530986 0.485850 0.694265
vn  -0.775325 -0.275477 0.568316
vn  -0.240295 -0.495424 0.834754
vn  -0.186691 0.541304 0.819840
vn  0.304987 0.641653 0.703750
vn  0.027130 0.978865 0.202698
vn  0.212466 0.506969 0.835369
vn  0.501747 -0.074818 0.861773
vn  0.501747 -0.074818 0.861773
vn  0.752660 0.273535 0.598901
vn  0.212466 0.506969 0.835369
vn  0.168624 -0.558347 0.812290
vn  -0.317838 -0.635399 0.703738
vn  -0.105808 -0.963235 0.246946
vn  -0.240295 -0.495424 0.834754
vn  0.713395 0.700762 0.000000
vn  0.071891 0.703415 0.707134
vn  0.411421 0.424301 0.806661
vn  -0.054796 -0.444246 0.894228
vn  0.517314 -0.587525 0.622255
vn  0.670457 -0.741949 -0.000000
vn  -0.611468 0.791269 0.000000
vn  -0.611468 0.791269 0.000000
vn  0.071891 0.703415 0.707134
vn  -0.335603 0.451458 0.826774
vn  -0.054796 -0.444246 0.894228
vn  -0.624356 -0.518111 0.584586
vn  -0.776316 -0.630345 -0.000000
vn  0.243006 0.494401 0.834575
vn  0.181505 0.981567 0.059849
vn  0.027130 0.978865 0.202698
vn  -0.205878 0.976612 -0.061999
vn  -0.530986 0.485850 0.694265
vn  0.027130 0.978865 0.202698
vn  0.501747 -0.074818 0.861773
vn  0.243006 0.494401 0.834575
vn  0.686270 -0.408137 0.602045
vn  -0.282864 -0.451393 0.846305
vn  -0.233869 -0.971877 -0.027573
vn  -0.105808 -0.963235 0.246946
vn  0.663970 -0.747257 -0.027407
vn  -0.105808 -0.963235 0.246946
vn  -0.530986 0.485850 0.694265
vn  -0.282864 -0.451393 0.846305
vn  -0.650787 0.486302 0.583084
vn  0.686270 -0.408137 0.602045
vn  0.501747 -0.074818 0.861773
vn  0.663970 -0.747257 -0.027407
vn  -0.105808 -0.963235 0.246946
vn  -0.650787 0.486302 0.583084
vn  -0.530986 0.485850 0.694265
vn  -0.595110 0.801168 -0.063042
vn  -0.205878 0.976612 -0.061999
vn  0.713395 0.700762 0.000000
vn  0.103337 0.994646 0.000000
vn  0.071891 0.703415 0.707134
vn  -0.611468 0.791269 0.000000
vn  0.670457 -0.741949 -0.000000
vn  -0.054796 -0.444246 0.894228
vn  -0.120784 -0.992679 -0.000000
vn  -0.776316 -0.630345 -0.000000
vn  0.517314 -0.587525 0.622255
vn  0.713395 0.700762 0.000000
vn  0.411421 0.424301 0.806661
vn  0.713395 0.700762 0.000000
vn  0.517314 -0.587525 0.622255
vn  0.670457 -0.741949 -0.000000
vn  -0.776316 -0.630345 -0.000000
vn  -0.335603 0.451458 0.826774
vn  -0.611468 0.791269 0.000000
vn  -0.335603 0.451458 0.826774
vn  -0.776316 -0.630345 -0.000000
vn  -0.624356 -0.518111 0.584586
vn  -0.186691 0.541304 0.819840
vn  -0.937768 -0.347264 0.000010
vn  -0.775325 -0.275477 0.568316
vn  -0.937768 -0.347264 0.000010
vn  -0.186691 0.541304 0.819840
vn  -0.314902 0.949124 -0.000012
vn  -0.530986 0.485850 0.694265
vn  -0.775325 -0.275477 0.568316
vn  -0.937768 -0.347264 0.000010
vn  0.933865 0.357627 -0.000008
vn  0.168624 -0.558347 0.812290
vn  0.275456 -0.961314 0.000010
vn  0.168624 -0.558347 0.812290
vn  0.933865 0.357627 -0.000008
vn  0.752660 0.273535 0.598901
vn  -0.186691 0.541304 0.819840
vn  0.027130 0.978865 0.202698
vn  -0.314902 0.949124 -0.000012
vn  0.168624 -0.558347 0.812290
vn  -0.105808 -0.963235 0.246946
vn  0.275456 -0.961314 0.000010
vn  0.501747 -0.074818 0.861773
vn  0.752660 0.273535 0.598901
vn  0.933865 0.357627 -0.000008
vn  0.027130 0.978865 0.202698
vn  0.212466 0.506969 0.835369
vn  0.501747 -0.074818 0.861773
vn  -0.317838 -0.635399 0.703738
vn  0.304987 0.641653 0.703750
vn  -0.240295 -0.495424 0.834754
vn  0.304987 0.641653 0.703750
vn  -0.317838 -0.635399 0.703738
vn  0.212466 0.506969 0.835369
vn  -0.105808 -0.963235 0.246946
vn  -0.240295 -0.495424 0.834754
vn  -0.530986 0.485850 0.694265
vn  0.243006 0.494401 0.834575
vn  0.663970 -0.747257 -0.027407
vn  0.181505 0.981567 0.059849
vn  0.663970 -0.747257 -0.027407
vn  0.243006 0.494401 0.834575
vn  0.686270 -0.408137 0.602045
vn  -0.233869 -0.971877 -0.027573
vn  -0.650787 0.486302 0.583084
vn  -0.595110 0.801168 -0.063042
vn  -0.650787 0.486302 0.583084
vn  -0.233869 -0.971877 -0.027573
vn  -0.282864 -0.451393 0.846305

g rdmobj00
usemtl material000
f  1/1/1 2/2/2 3/3/3
f  4/4/4 3/3/3 2/2/2
f  3/3/3 4/4/4 5/5/5
f  6/6/6 5/5/5 4/4/4
f  5/5/5 6/6/6 7/7/7
f  8/8/8 7/7/7 6/6/6
f  9/9/9 10/10/10 11/11/11
f  12/12/12 11/11/11 10/10/10
f  11/11/11 12/12/12 13/13/13
f  14/14/14 13/13/13 12/12/12
f  13/13/13 14/14/14 15/15/15
f  16/16/16 15/15/15 14/14/14
f  17/17/17 18/18/18 19/19/19
f  20/20/20 19/19/19 18/18/18
f  19/19/19 20/20/20 21/21/21
f  22/22/22 21/21/21 20/20/20
f  23/23/23 24/24/24 25/25/25
f  26/26/26 25/25/25 24/24/24
f  25/25/25 26/26/26 27/27/27
f  28/28/28 27/27/27 26/26/26
f  27/27/27 28/28/28 29/29/29
f  30/30/30 31/31/31 32/32/32
f  33/33/33 32/32/32 31/31/31
f  32/32/32 33/33/33 34/34/34
f  35/35/35 36/36/36 37/37/37
f  38/38/38 37/37/37 36/36/36
f  39/39/39 40/40/40 41/41/41
f  42/42/42 41/41/41 40/40/40
f  43/43/43 44/44/44 45/45/45
f  46/46/46 45/45/45 44/44/44
f  47/47/47 48/48/48 49/49/49
f  50/50/50 49/49/49 48/48/48
f  51/51/51 52/52/52 53/53/53
f  54/54/54 53/53/53 52/52/52
f  55/55/55 56/56/56 57/57/57
f  58/58/58 57/57/57 56/56/56
f  59/59/59 60/60/60 61/61/61
f  62/62/62 61/61/61 60/60/60
f  63/63/63 64/64/64 65/65/65
f  66/66/66 67/67/67 68/68/68
f  69/69/69 70/70/70 71/71/71
f  72/72/72 73/73/73 74/74/74
f  75/75/75 76/76/76 77/77/77
f  78/78/78 79/79/79 80/80/80
f  81/81/81 82/82/82 83/83/83
f  84/84/84 85/85/85 86/86/86
f  87/87/87 88/88/88 89/89/89
f  90/90/90 91/91/91 92/92/92
f  93/93/93 94/94/94 95/95/95
f  96/96/96 97/97/97 98/98/98
f  99/99/99 100/100/100 101/101/101
f  102/102/102 103/103/103 104/104/104
f  105/105/105 106/106/106 107/107/107
f  108/108/108 109/109/109 110/110/110
f  111/111/111 112/112/112 113/113/113
f  114/114/114 115/115/115 116/116/116
f  117/117/117 118/118/118 119/119/119
f  120/120/120 121/121/121 122/122/122

g
