# Noesis .obj export.
#
mtllib door8.mtl
g
v  147.315521 0.000048 5.000088
v  147.315521 0.000048 5.000088
v  -4.999769 260.000000 5.000002
v  147.315689 260.000000 5.000086
v  147.315460 260.000000 -4.999987
v  147.315277 0.000048 -4.999892
v  -5.000014 260.000000 -4.999977
v  147.315521 0.000048 5.000088
v  -4.999769 260.000000 5.000002
v  -4.999769 0.000048 5.000002
v  -5.000014 0.000048 -4.999977
v  147.315277 0.000048 -4.999892
v  -5.000014 260.000000 -4.999977
v  147.315460 260.000000 -4.999987
v  -5.000014 260.000000 -4.999977
v  -4.999769 260.000000 5.000002
v  -5.000014 0.000048 -4.999977
v  147.315689 260.000000 5.000086
v  147.315521 0.000048 5.000088
v  147.315277 0.000048 -4.999892
v  -4.999769 0.000048 5.000002
v  133.999695 89.999817 -5.003190
v  132.538528 69.999786 -10.124084
v  132.538528 86.999802 -10.124084
v  126.460587 86.999802 -10.123949
v  124.999680 89.999817 -5.002969
v  126.460587 86.999802 -10.123949
v  126.459610 69.999786 -10.123952
v  132.538528 69.999786 -10.124084
v  133.999939 66.999771 4.996886
v  132.539047 86.999802 10.117865
v  132.539047 69.999786 10.117865
v  126.461090 86.999802 10.118016
v  124.999908 89.999817 4.997103
v  126.460136 69.999786 10.118013
v  126.461090 86.999802 10.118016
v  132.539047 69.999786 10.117865
v  132.538528 69.999786 -10.124084
v  133.999695 89.999817 -5.003190
v  133.999695 66.999771 -5.003190
v  132.538528 86.999802 -10.124084
v  124.999680 89.999817 -5.002969
v  133.999695 89.999817 -5.003190
v  124.999680 89.999817 -5.002969
v  132.538528 86.999802 -10.124084
v  126.460587 86.999802 -10.123949
v  124.999680 89.999817 -5.002969
v  126.459610 69.999786 -10.123952
v  124.999680 66.999771 -5.002969
v  124.999680 66.999771 -5.002969
v  132.538528 69.999786 -10.124084
v  133.999695 66.999771 -5.003190
v  132.538528 69.999786 -10.124084
v  124.999680 66.999771 -5.002969
v  126.459610 69.999786 -10.123952
v  132.539047 86.999802 10.117865
v  133.999939 66.999771 4.996886
v  133.999939 89.999817 4.996886
v  126.461090 86.999802 10.118016
v  133.999939 89.999817 4.996886
v  124.999908 89.999817 4.997103
v  133.999939 89.999817 4.996886
v  126.461090 86.999802 10.118016
v  132.539047 86.999802 10.117865
v  126.460136 69.999786 10.118013
v  124.999908 89.999817 4.997103
v  124.999908 66.999771 4.997103
v  132.539047 69.999786 10.117865
v  124.999908 66.999771 4.997103
v  133.999939 66.999771 4.996886
v  124.999908 66.999771 4.997103
v  132.539047 69.999786 10.117865
v  126.460136 69.999786 10.118013

vt  0.996094 -0.873047 0.000000
vt  0.996094 -0.873047 0.000000
vt  0.003906 -0.001953 0.000000
vt  0.996094 -0.001953 0.000000
vt  0.996094 -0.001953 0.000000
vt  0.996094 -0.873047 0.000000
vt  0.003906 -0.001953 0.000000
vt  0.996094 -0.873047 0.000000
vt  0.003906 -0.001953 0.000000
vt  0.003906 -0.873047 0.000000
vt  0.003906 -0.873047 0.000000
vt  0.996094 -0.873047 0.000000
vt  0.003906 -0.001953 0.000000
vt  0.996094 -0.001953 0.000000
vt  0.003906 -0.001953 0.000000
vt  0.003906 -0.001953 0.000000
vt  0.003906 -0.873047 0.000000
vt  0.996094 -0.001953 0.000000
vt  0.996094 -0.873047 0.000000
vt  0.996094 -0.873047 0.000000
vt  0.003906 -0.873047 0.000000
vt  0.992188 -0.876953 0.000000
vt  0.949219 -0.998047 0.000000
vt  0.949219 -0.876953 0.000000
vt  0.910156 -0.876953 0.000000
vt  0.855469 -0.876953 0.000000
vt  0.910156 -0.876953 0.000000
vt  0.910156 -0.998047 0.000000
vt  0.949219 -0.998047 0.000000
vt  0.992188 -0.998047 0.000000
vt  0.949219 -0.876953 0.000000
vt  0.949219 -0.998047 0.000000
vt  0.910156 -0.876953 0.000000
vt  0.855469 -0.876953 0.000000
vt  0.910156 -0.998047 0.000000
vt  0.910156 -0.876953 0.000000
vt  0.949219 -0.998047 0.000000
vt  0.949219 -0.998047 0.000000
vt  0.992188 -0.876953 0.000000
vt  0.992188 -0.998047 0.000000
vt  0.812500 -0.919922 0.000000
vt  0.773438 -0.900391 0.000000
vt  0.812500 -0.900391 0.000000
vt  0.773438 -0.900391 0.000000
vt  0.812500 -0.919922 0.000000
vt  0.773438 -0.919922 0.000000
vt  0.855469 -0.876953 0.000000
vt  0.910156 -0.998047 0.000000
vt  0.855469 -0.998047 0.000000
vt  0.773438 -0.982422 0.000000
vt  0.820313 -0.958984 0.000000
vt  0.820313 -0.982422 0.000000
vt  0.820313 -0.958984 0.000000
vt  0.773438 -0.982422 0.000000
vt  0.773438 -0.958984 0.000000
vt  0.949219 -0.876953 0.000000
vt  0.992188 -0.998047 0.000000
vt  0.992188 -0.876953 0.000000
vt  0.773438 -0.919922 0.000000
vt  0.812500 -0.900391 0.000000
vt  0.773438 -0.900391 0.000000
vt  0.812500 -0.900391 0.000000
vt  0.773438 -0.919922 0.000000
vt  0.812500 -0.919922 0.000000
vt  0.910156 -0.998047 0.000000
vt  0.855469 -0.876953 0.000000
vt  0.855469 -0.998047 0.000000
vt  0.820313 -0.958984 0.000000
vt  0.773438 -0.982422 0.000000
vt  0.820313 -0.982422 0.000000
vt  0.773438 -0.982422 0.000000
vt  0.820313 -0.958984 0.000000
vt  0.773438 -0.958984 0.000000

vn  0.577354 -0.577355 0.577341
vn  0.577354 -0.577355 0.577341
vn  -0.577346 0.577345 0.577360
vn  0.577355 0.577355 0.577341
vn  0.577346 0.577345 -0.577359
vn  0.577346 -0.577346 -0.577359
vn  -0.577355 0.577355 -0.577341
vn  0.577354 -0.577355 0.577341
vn  -0.577346 0.577345 0.577360
vn  -0.577346 -0.577345 0.577360
vn  -0.577355 -0.577355 -0.577341
vn  0.577346 -0.577346 -0.577359
vn  -0.577355 0.577355 -0.577341
vn  0.577346 0.577345 -0.577359
vn  -0.577355 0.577355 -0.577341
vn  -0.577346 0.577345 0.577360
vn  -0.577355 -0.577355 -0.577341
vn  0.577355 0.577355 0.577341
vn  0.577354 -0.577355 0.577341
vn  0.577346 -0.577346 -0.577359
vn  -0.577346 -0.577345 0.577360
vn  0.637209 0.571759 -0.516775
vn  0.437218 -0.392319 -0.809275
vn  0.437218 0.392319 -0.809275
vn  -0.437277 0.392339 -0.809234
vn  -0.637257 0.571781 -0.516692
vn  -0.437277 0.392339 -0.809234
vn  -0.437281 -0.392321 -0.809240
vn  0.437218 -0.392319 -0.809275
vn  0.637236 -0.571760 0.516741
vn  0.437258 0.392320 0.809253
vn  0.437258 -0.392320 0.809253
vn  -0.437237 0.392338 0.809256
vn  -0.637230 0.571780 0.516726
vn  -0.437240 -0.392320 0.809262
vn  -0.437237 0.392338 0.809256
vn  0.437258 -0.392320 0.809253
vn  0.437218 -0.392319 -0.809275
vn  0.637209 0.571759 -0.516775
vn  0.637209 -0.571759 -0.516775
vn  0.437218 0.392319 -0.809275
vn  -0.637257 0.571781 -0.516692
vn  0.637209 0.571759 -0.516775
vn  -0.637257 0.571781 -0.516692
vn  0.437218 0.392319 -0.809275
vn  -0.437277 0.392339 -0.809234
vn  -0.637257 0.571781 -0.516692
vn  -0.437281 -0.392321 -0.809240
vn  -0.637268 -0.571760 -0.516701
vn  -0.637268 -0.571760 -0.516701
vn  0.437218 -0.392319 -0.809275
vn  0.637209 -0.571759 -0.516775
vn  0.437218 -0.392319 -0.809275
vn  -0.637268 -0.571760 -0.516701
vn  -0.437281 -0.392321 -0.809240
vn  0.437258 0.392320 0.809253
vn  0.637236 -0.571760 0.516741
vn  0.637236 0.571760 0.516741
vn  -0.437237 0.392338 0.809256
vn  0.637236 0.571760 0.516741
vn  -0.637230 0.571780 0.516726
vn  0.637236 0.571760 0.516741
vn  -0.437237 0.392338 0.809256
vn  0.437258 0.392320 0.809253
vn  -0.437240 -0.392320 0.809262
vn  -0.637230 0.571780 0.516726
vn  -0.637241 -0.571759 0.516735
vn  0.437258 -0.392320 0.809253
vn  -0.637241 -0.571759 0.516735
vn  0.637236 -0.571760 0.516741
vn  -0.637241 -0.571759 0.516735
vn  0.437258 -0.392320 0.809253
vn  -0.437240 -0.392320 0.809262

g rdmobj00
usemtl material000
f  1/1/1 2/2/2 3/3/3
f  4/4/4 3/3/3 2/2/2
f  3/3/3 4/4/4 5/5/5
f  6/6/6 5/5/5 4/4/4
f  5/5/5 6/6/6 7/7/7
f  8/8/8 9/9/9 10/10/10
f  11/11/11 10/10/10 9/9/9
f  10/10/10 11/11/11 12/12/12
f  13/13/13 12/12/12 11/11/11
f  14/14/14 15/15/15 16/16/16
f  17/17/17 16/16/16 15/15/15
f  18/18/18 19/19/19 20/20/20
f  21/21/21 20/20/20 19/19/19
f  22/22/22 23/23/23 24/24/24
f  25/25/25 24/24/24 23/23/23
f  26/26/26 27/27/27 28/28/28
f  29/29/29 28/28/28 27/27/27
f  30/30/30 31/31/31 32/32/32
f  33/33/33 32/32/32 31/31/31
f  34/34/34 35/35/35 36/36/36
f  37/37/37 36/36/36 35/35/35
f  38/38/38 39/39/39 40/40/40
f  41/41/41 42/42/42 43/43/43
f  44/44/44 45/45/45 46/46/46
f  47/47/47 48/48/48 49/49/49
f  50/50/50 51/51/51 52/52/52
f  53/53/53 54/54/54 55/55/55
f  56/56/56 57/57/57 58/58/58
f  59/59/59 60/60/60 61/61/61
f  62/62/62 63/63/63 64/64/64
f  65/65/65 66/66/66 67/67/67
f  68/68/68 69/69/69 70/70/70
f  71/71/71 72/72/72 73/73/73

g
