# Noesis .obj export.
#
mtllib trinity_blue.mtl
g
v  -10.000000 10.000000 0.000000
v  10.000000 -10.000000 0.000000
v  -10.000000 -10.000000 0.000000
v  10.000000 -10.000000 0.000000
v  -10.000000 10.000000 0.000000
v  10.000000 10.000000 0.000000
v  -10.000000 -10.000000 0.000000
v  10.000000 10.000000 0.000000
v  -10.000000 10.000000 0.000000
v  10.000000 10.000000 0.000000
v  -10.000000 -10.000000 0.000000
v  10.000000 -10.000000 0.000000

vt  0.003906 -0.003906 0.000000
vt  0.996094 -0.996094 0.000000
vt  0.003906 -0.996094 0.000000
vt  0.996094 -0.996094 0.000000
vt  0.003906 -0.003906 0.000000
vt  0.996094 -0.003906 0.000000
vt  0.003906 -0.996094 0.000000
vt  0.996094 -0.003906 0.000000
vt  0.003906 -0.003906 0.000000
vt  0.996094 -0.003906 0.000000
vt  0.003906 -0.996094 0.000000
vt  0.996094 -0.996094 0.000000

vn  0.000000 0.000000 -1.000000
vn  0.000000 0.000000 -1.000000
vn  0.000000 0.000000 -1.000000
vn  0.000000 0.000000 -1.000000
vn  0.000000 0.000000 -1.000000
vn  0.000000 0.000000 -1.000000
vn  0.000000 0.000000 1.000000
vn  0.000000 0.000000 1.000000
vn  0.000000 0.000000 1.000000
vn  0.000000 0.000000 1.000000
vn  0.000000 0.000000 1.000000
vn  0.000000 0.000000 1.000000

g rdmobj00
usemtl material000
f  1/1/1 2/2/2 3/3/3
f  4/4/4 5/5/5 6/6/6
f  7/7/7 8/8/8 9/9/9
f  10/10/10 11/11/11 12/12/12

g
